<svg width="328" height="324" viewBox="0 0 328 324" fill="none" xmlns="http://www.w3.org/2000/svg">
<path fill-rule="evenodd" clip-rule="evenodd" d="M286.9 43.328C265.61 21.1943 230.408 20.5104 208.275 41.8004L158.789 89.3997C136.655 110.69 135.971 145.891 157.261 168.025C178.551 190.159 213.753 190.843 235.887 169.553L285.372 121.953C307.506 100.663 308.19 65.4617 286.9 43.328ZM274.703 55.0603C258.497 38.2123 231.702 37.6916 214.854 53.8974L169.576 97.4493C152.728 113.655 152.207 140.451 168.413 157.299C184.619 174.147 211.414 174.667 228.262 158.461L273.54 114.909C290.388 98.7037 290.909 71.9083 274.703 55.0603Z" fill="#FFE382"/>
<path fill-rule="evenodd" clip-rule="evenodd" d="M168.69 158.704C147.123 136.281 111.462 135.588 89.0395 157.156L40.5992 203.75C18.1769 225.317 17.484 260.978 39.0516 283.401C60.6192 305.823 96.2802 306.516 118.703 284.948L167.143 238.354C189.565 216.787 190.258 181.126 168.69 158.704ZM156.493 170.436C140.076 153.368 112.931 152.841 95.8634 169.258L51.3814 212.044C34.3136 228.461 33.7862 255.606 50.2033 272.674C66.6205 289.742 93.7654 290.269 110.833 273.852L155.315 231.066C172.383 214.648 172.91 187.504 156.493 170.436Z" fill="#FFE382"/>
<rect x="126.572" y="187.597" width="93.1805" height="15.8289" rx="7.91445" transform="rotate(-44.9156 126.572 187.597)" fill="#FFE382"/>
<path fill-rule="evenodd" clip-rule="evenodd" d="M288.981 280.715C310.459 258.763 310.074 223.557 288.122 202.079L239.043 154.061C217.091 132.584 181.885 132.968 160.408 154.92C138.93 176.872 139.315 212.078 161.267 233.555L210.346 281.574C232.297 303.051 267.504 302.667 288.981 280.715ZM276.884 268.879C293.233 252.17 292.94 225.371 276.23 209.023L231.325 165.087C214.615 148.739 187.816 149.031 171.468 165.741C155.119 182.451 155.412 209.249 172.122 225.598L217.027 269.533C233.737 285.882 260.536 285.589 276.884 268.879Z" fill="#FFBFF9"/>
<path fill-rule="evenodd" clip-rule="evenodd" d="M170.072 166.061C191.829 143.823 191.44 108.157 169.202 86.3996L121.159 39.3956C98.9212 17.638 63.2556 18.0276 41.4981 40.2657C19.7406 62.5038 20.1302 98.1694 42.3683 119.927L90.4106 166.931C112.649 188.689 148.314 188.299 170.072 166.061ZM157.975 154.225C174.536 137.298 174.24 110.15 157.312 93.5878L113.196 50.4246C96.2682 33.8629 69.1198 34.1594 52.5581 51.087C35.9964 68.0145 36.293 95.1629 53.2205 111.725L97.3371 154.888C114.265 171.45 141.413 171.153 157.975 154.225Z" fill="#FFBFF9"/>
<rect x="139.913" y="124.839" width="93.1805" height="15.8289" rx="7.91445" transform="rotate(43.3455 139.913 124.839)" fill="#FFBFF9"/>
</svg>
