<svg width="36" height="40" viewBox="0 0 36 40" fill="none" xmlns="http://www.w3.org/2000/svg">
<path d="M30.2311 8.01788C28.0764 6.61302 26.5213 4.36524 26.0362 1.74493C25.9314 1.17879 25.8738 0.596143 25.8738 0H18.997L18.9859 27.5599C18.8703 30.6461 16.3302 33.1232 13.2163 33.1232C12.2485 33.1232 11.3372 32.8812 10.5348 32.459C8.69485 31.4907 7.43566 29.562 7.43566 27.3426C7.43566 24.155 10.029 21.5617 13.2163 21.5617C13.8113 21.5617 14.3821 21.6598 14.922 21.829V14.8085C14.3632 14.7324 13.7956 14.6848 13.2163 14.6848C6.23683 14.6848 0.558838 20.3631 0.558838 27.3426C0.558838 31.6248 2.69835 35.4144 5.9624 37.7059C8.01837 39.1493 10.5192 40 13.2163 40C20.1958 40 25.8738 34.3221 25.8738 27.3426V13.3673C28.571 15.3032 31.8754 16.444 35.4412 16.444V9.56719C33.5204 9.56719 31.7314 8.99616 30.2311 8.01788" fill="black"/>
</svg>
